simulation
nRows=61
nColumns=15
endheader
time  TH_x TH_y TH_z SC_y  SC_z  SC_x  AC_y  AC_z  AC_x  GH_y  GH_z  GH_yy  EL_x  PS_y
0.750042  0.000000  0.000000  0.000000  -36.494862  2.844336  -15.000000  83.197084  39.383199  -3.995470  13.016131  39.863914  -50.376693  34.309783  119.219504
0.750098  0.000000  0.000000  0.000000  -36.494862  2.844336  -11.578947  83.503190  35.985136  -4.495987  13.016131  39.863914  -50.376693  34.309783  119.219504
0.750153  0.000000  0.000000  0.000000  -36.494862  2.844336  -8.157895  83.761933  32.585167  -4.955112  13.016131  39.863914  -50.376693  34.309783  119.219504
0.750209  0.000000  0.000000  0.000000  -36.494862  2.844336  -4.736842  83.980439  29.183652  -5.380625  13.016131  39.863914  -50.376693  34.309783  119.219504
0.750265  0.000000  0.000000  0.000000  -36.494862  2.844336  -1.315789  84.164275  25.780875  -5.778808  13.016131  39.863914  -50.376693  34.309783  119.219504
0.750321  0.000000  0.000000  0.000000  -36.494862  2.844336  2.105263  84.317745  22.377075  -6.154769  13.016131  39.863914  -50.376693  34.309783  119.219504
0.750377  0.000000  0.000000  0.000000  -36.494862  2.844336  5.526316  84.444190  18.972449  -6.512743  13.016131  39.863914  -50.376693  34.309783  119.219504
0.750433  0.000000  0.000000  0.000000  -36.494862  2.844336  8.947368  84.546246  15.567162  -6.856362  13.016131  39.863914  -50.376693  34.309783  119.219504
0.750488  0.000000  0.000000  0.000000  -36.494862  2.844336  12.368421  84.625936  12.161361  -7.188777  13.016131  39.863914  -50.376693  34.309783  119.219504
0.750544  0.000000  0.000000  0.000000  -36.494862  2.844336  15.789474  84.684772  8.755176  -7.512772  13.016131  39.863914  -50.376693  34.309783  119.219504
0.750600  0.000000  0.000000  0.000000  -36.494862  2.844336  19.210526  84.723852  5.348713  -7.830878  13.016131  39.863914  -50.376693  34.309783  119.219504
0.750656  0.000000  0.000000  0.000000  -36.494862  2.844336  22.631579  84.743853  1.942091  -8.145462  13.016131  39.863914  -50.376693  34.309783  119.219504
0.750712  0.000000  0.000000  0.000000  -36.494862  2.844336  26.052632  84.745161  -1.464587  -8.458777  13.016131  39.863914  -50.376693  34.309783  119.219504
0.750767  0.000000  0.000000  0.000000  -36.494862  2.844336  29.473684  84.727786  -4.871222  -8.773047  13.016131  39.863914  -50.376693  34.309783  119.219504
0.750823  0.000000  0.000000  0.000000  -36.494862  2.844336  32.894737  84.691418  -8.277710  -9.090528  13.016131  39.863914  -50.376693  34.309783  119.219504
0.750879  0.000000  0.000000  0.000000  -36.494862  2.844336  36.315789  84.635412  -11.683946  -9.413532  13.016131  39.863914  -50.376693  34.309783  119.219504
0.750935  0.000000  0.000000  0.000000  -36.494862  2.844336  39.736842  84.558725  -15.089807  -9.744616  13.016131  39.863914  -50.376693  34.309783  119.219504
0.750991  0.000000  0.000000  0.000000  -36.494862  2.844336  43.157895  84.459912  -18.495174  -10.086486  13.016131  39.863914  -50.376693  34.309783  119.219504
0.751046  0.000000  0.000000  0.000000  -36.494862  2.844336  46.578947  84.337031  -21.899902  -10.442239  13.016131  39.863914  -50.376693  34.309783  119.219504
0.751102  0.000000  0.000000  0.000000  -36.494862  2.844336  50.000000  84.187549  -25.303827  -10.815424  13.016131  39.863914  -50.376693  34.309783  119.219504
0.751158  0.000000  0.000000  0.000000  -31.533913  1.889228  -15.000000  69.784828  54.176299  13.406305  17.637768  55.342036  -41.622202  32.441666  118.485493
0.751214  0.000000  0.000000  0.000000  -31.533913  1.889228  -11.578947  71.274785  50.950502  11.530654  17.637768  55.342036  -41.622202  32.441666  118.485493
0.751270  0.000000  0.000000  0.000000  -31.533913  1.889228  -8.157895  72.512342  47.698578  9.899593  17.637768  55.342036  -41.622202  32.441666  118.485493
0.751325  0.000000  0.000000  0.000000  -31.533913  1.889228  -4.736842  73.548867  44.426258  8.460788  17.637768  55.342036  -41.622202  32.441666  118.485493
0.751381  0.000000  0.000000  0.000000  -31.533913  1.889228  -1.315789  74.422545  41.137798  7.175034  17.637768  55.342036  -41.622202  32.441666  118.485493
0.751437  0.000000  0.000000  0.000000  -31.533913  1.889228  2.105263  75.162193  37.836408  6.012398  17.637768  55.342036  -41.622202  32.441666  118.485493
0.751493  0.000000  0.000000  0.000000  -31.533913  1.889228  5.526316  75.789861  34.524571  4.949616  17.637768  55.342036  -41.622202  32.441666  118.485493
0.751549  0.000000  0.000000  0.000000  -31.533913  1.889228  8.947368  76.322611  31.204232  3.968299  17.637768  55.342036  -41.622202  32.441666  118.485493
0.751604  0.000000  0.000000  0.000000  -31.533913  1.889228  12.368421  76.773740  27.876956  3.053695  17.637768  55.342036  -41.622202  32.441666  118.485493
0.751660  0.000000  0.000000  0.000000  -31.533913  1.889228  15.789474  77.153750  24.544003  2.193686  17.637768  55.342036  -41.622202  32.441666  118.485493
0.751716  0.000000  0.000000  0.000000  -31.533913  1.889228  19.210526  77.470840  21.206420  1.378297  17.637768  55.342036  -41.622202  32.441666  118.485493
0.751772  0.000000  0.000000  0.000000  -31.533913  1.889228  22.631579  77.731565  17.865109  0.598973  17.637768  55.342036  -41.622202  32.441666  118.485493
0.751828  0.000000  0.000000  0.000000  -31.533913  1.889228  26.052632  77.940951  14.520813  -0.151533  17.637768  55.342036  -41.622202  32.441666  118.485493
0.751883  0.000000  0.000000  0.000000  -31.533913  1.889228  29.473684  78.102930  11.174199  -0.879663  17.637768  55.342036  -41.622202  32.441666  118.485493
0.751939  0.000000  0.000000  0.000000  -31.533913  1.889228  32.894737  78.220408  7.825856  -1.591147  17.637768  55.342036  -41.622202  32.441666  118.485493
0.751995  0.000000  0.000000  0.000000  -31.533913  1.889228  36.315789  78.295463  4.476363  -2.291285  17.637768  55.342036  -41.622202  32.441666  118.485493
0.752051  0.000000  0.000000  0.000000  -31.533913  1.889228  39.736842  78.329383  1.126198  -2.985035  17.637768  55.342036  -41.622202  32.441666  118.485493
0.752107  0.000000  0.000000  0.000000  -31.533913  1.889228  43.157895  78.322748  -2.224129  -3.677190  17.637768  55.342036  -41.622202  32.441666  118.485493
0.752163  0.000000  0.000000  0.000000  -31.533913  1.889228  46.578947  78.275445  -5.574133  -4.372501  17.637768  55.342036  -41.622202  32.441666  118.485493
0.752218  0.000000  0.000000  0.000000  -31.533913  1.889228  50.000000  78.186666  -8.923308  -5.075795  17.637768  55.342036  -41.622202  32.441666  118.485493
0.752274  0.000000  0.000000  0.000000  -34.753776  1.141720  -15.000000  83.200382  49.923535  -1.972905  16.859061  67.645949  -45.836724  28.083926  124.888730
0.752330  0.000000  0.000000  0.000000  -34.753776  1.141720  -11.578947  83.639327  46.524977  -2.561239  16.859061  67.645949  -45.836724  28.083926  124.888730
0.752386  0.000000  0.000000  0.000000  -34.753776  1.141720  -8.157895  84.005335  43.123759  -3.080198  16.859061  67.645949  -45.836724  28.083926  124.888730
0.752442  0.000000  0.000000  0.000000  -34.753776  1.141720  -4.736842  84.312603  39.720455  -3.544441  16.859061  67.645949  -45.836724  28.083926  124.888730
0.752497  0.000000  0.000000  0.000000  -34.753776  1.141720  -1.315789  84.571713  36.315465  -3.964944  16.859061  67.645949  -45.836724  28.083926  124.888730
0.752553  0.000000  0.000000  0.000000  -34.753776  1.141720  2.105263  84.790646  32.909127  -4.350206  16.859061  67.645949  -45.836724  28.083926  124.888730
0.752609  0.000000  0.000000  0.000000  -34.753776  1.141720  5.526316  84.975528  29.501696  -4.706886  16.859061  67.645949  -45.836724  28.083926  124.888730
0.752665  0.000000  0.000000  0.000000  -34.753776  1.141720  8.947368  85.131095  26.093374  -5.040318  16.859061  67.645949  -45.836724  28.083926  124.888730
0.752721  0.000000  0.000000  0.000000  -34.753776  1.141720  12.368421  85.261022  22.684334  -5.354834  16.859061  67.645949  -45.836724  28.083926  124.888730
0.752776  0.000000  0.000000  0.000000  -34.753776  1.141720  15.789474  85.368209  19.274701  -5.654076  16.859061  67.645949  -45.836724  28.083926  124.888730
0.752832  0.000000  0.000000  0.000000  -34.753776  1.141720  19.210526  85.454892  15.864606  -5.941107  16.859061  67.645949  -45.836724  28.083926  124.888730
0.752888  0.000000  0.000000  0.000000  -34.753776  1.141720  22.631579  85.522797  12.454159  -6.218575  16.859061  67.645949  -45.836724  28.083926  124.888730
0.752944  0.000000  0.000000  0.000000  -34.753776  1.141720  26.052632  85.573224  9.043408  -6.488837  16.859061  67.645949  -45.836724  28.083926  124.888730
0.753000  0.000000  0.000000  0.000000  -34.753776  1.141720  29.473684  85.607106  5.632484  -6.754008  16.859061  67.645949  -45.836724  28.083926  124.888730
0.753055  0.000000  0.000000  0.000000  -34.753776  1.141720  32.894737  85.625063  2.221425  -7.016089  16.859061  67.645949  -45.836724  28.083926  124.888730
0.753111  0.000000  0.000000  0.000000  -34.753776  1.141720  36.315789  85.627413  -1.189667  -7.276959  16.859061  67.645949  -45.836724  28.083926  124.888730
0.753167  0.000000  0.000000  0.000000  -34.753776  1.141720  39.736842  85.614200  -4.600739  -7.538473  16.859061  67.645949  -45.836724  28.083926  124.888730
0.753223  0.000000  0.000000  0.000000  -34.753776  1.141720  43.157895  85.585181  -8.011710  -7.802513  16.859061  67.645949  -45.836724  28.083926  124.888730
0.753279  0.000000  0.000000  0.000000  -34.753776  1.141720  46.578947  85.539836  -11.422504  -8.071026  16.859061  67.645949  -45.836724  28.083926  124.888730
0.753334  0.000000  0.000000  0.000000  -34.753776  1.141720  50.000000  85.477345  -14.833070  -8.346067  16.859061  67.645949  -45.836724  28.083926  124.888730
0.753390  0.000000  0.000000  0.000000  -33.747291  -1.418279  -15.000000  72.763232  38.126597  0.252853  31.144134  55.148511  -48.171378  32.862217  114.892382
